<?xml version="1.0" encoding="utf-8"?>
<!-- Generator: Adobe Illustrator 21.0.2, SVG Export Plug-In . SVG Version: 6.00 Build 0)  -->
<svg version="1.1" id="Layer_1" xmlns="http://www.w3.org/2000/svg" xmlns:xlink="http://www.w3.org/1999/xlink" x="0px" y="0px"
	 viewBox="0 0 150 150" style="enable-background:new 0 0 150 150;" xml:space="preserve">
<style type="text/css">
	.st0{fill:#040707;}
</style>
<g>
	<rect x="0" y="50" class="st0" width="150" height="3.1"/>
	<rect x="0" y="79.6" class="st0" width="150" height="0.7"/>
	<rect x="0" y="59.8" class="st0" width="150" height="1.9"/>
	<rect x="0" y="88.3" class="st0" width="150" height="1.9"/>
	<rect x="0" y="69.7" class="st0" width="150" height="0.7"/>
	<rect x="0" y="123.2" class="st0" width="150" height="6.6"/>
	<rect x="0" y="131.9" class="st0" width="150" height="7.8"/>
	<rect x="0" y="114.5" class="st0" width="150" height="5.4"/>
	<rect x="0" y="105.7" class="st0" width="150" height="4.3"/>
	<rect x="0" y="97" class="st0" width="150" height="3.1"/>
	<rect x="0" y="140.6" class="st0" width="150" height="9.5"/>
	<rect x="0" y="0" class="st0" width="150" height="9.5"/>
	<rect x="0" y="10.4" class="st0" width="150" height="7.8"/>
	<rect x="0" y="30.2" class="st0" width="150" height="5.4"/>
	<rect x="0" y="40.1" class="st0" width="150" height="4.2"/>
	<rect x="0" y="20.3" class="st0" width="150" height="6.7"/>
</g>
</svg>
